<?xml version="1.0" encoding="iso-8859-1"?>
<!-- Generator: Adobe Illustrator 19.0.0, SVG Export Plug-In . SVG Version: 6.00 Build 0)  -->
<svg version="1.1" id="Layer_1" xmlns="http://www.w3.org/2000/svg" xmlns:xlink="http://www.w3.org/1999/xlink" x="0px" y="0px"
	 viewBox="0 0 460 460" style="enable-background:new 0 0 460 460;" xml:space="preserve">
<g id="XMLID_1208_">
	<path id="XMLID_1209_" style="fill:#FFE278;" d="M150.742,445.976L451.317,167.19C423.985,70.695,335.249,0,230,0
		C102.974,0,0,102.974,0,230c0,99.193,62.794,183.719,150.798,215.998C150.78,445.991,150.76,445.983,150.742,445.976z"/>
	<path id="XMLID_1210_" style="fill:#FFC85F;" d="M460,230c0-21.776-3.028-42.845-8.683-62.81L373,88.873L67,362.235l83.741,83.741
		C175.45,455.047,202.146,460,230,460C357.026,460,460,357.025,460,230z"/>
	<polygon id="XMLID_1211_" style="fill:#1D54BD;" points="373,131.864 230,353.276 87,131.864 67,131.864 67,362.235 
		209.416,362.235 219.969,371.127 240.031,371.127 250.585,362.235 393,362.235 393,131.864 	"/>
	<path id="XMLID_1212_" style="fill:#487ED2;" d="M87,131.864c0,0,138.572,214.756,143,221.412v17.851h-10.031l-10.554-8.892H67
		V131.864H87z"/>
	<path id="XMLID_1213_" style="fill:#12B5FF;" d="M240.585,312.235L230,333.276l-10.585-21.041L87,322.235v20h122.415
		c8.591,0,16.157,4.385,20.585,11.041c4.428-6.656,11.994-11.041,20.585-11.041H373v-20L240.585,312.235z"/>
	<path id="XMLID_1214_" style="fill:#48D9FF;" d="M230,333.276v20c-4.428-6.656-11.994-11.041-20.585-11.041H87v-20h122.415
		C218.006,322.235,225.572,326.62,230,333.276z"/>
	<path id="XMLID_1215_" style="fill:#FFFFFF;" d="M209.414,88.873H87v233.362h122.413c8.591,0,16.16,4.387,20.587,11.041L240,216.6
		L230,99.924C225.575,93.265,218.008,88.873,209.414,88.873z"/>
	<path id="XMLID_1216_" style="fill:#E0F8FF;" d="M250.587,88.873H373v233.362H250.587c-8.591,0-16.16,4.387-20.587,11.041V99.924
		C234.426,93.265,241.992,88.873,250.587,88.873z"/>
	<rect id="XMLID_1217_" x="114" y="115.554" style="fill:#A8CFFF;" width="89" height="20"/>
	<rect id="XMLID_1218_" x="114" y="155.554" style="fill:#A8CFFF;" width="89" height="20"/>
	<rect id="XMLID_1219_" x="114" y="195.554" style="fill:#A8CFFF;" width="44" height="20"/>
	<rect id="XMLID_1220_" x="114" y="235.554" style="fill:#A8CFFF;" width="89" height="20"/>
	<rect id="XMLID_1221_" x="114" y="275.554" style="fill:#A8CFFF;" width="89" height="20"/>
	<rect id="XMLID_1222_" x="256.681" y="115.554" style="fill:#73A7E6;" width="89" height="20"/>
	<rect id="XMLID_1223_" x="256.681" y="155.554" style="fill:#73A7E6;" width="89" height="20"/>
	<rect id="XMLID_1224_" x="256.681" y="195.554" style="fill:#73A7E6;" width="89" height="20"/>
	<rect id="XMLID_1225_" x="256.681" y="235.554" style="fill:#73A7E6;" width="89" height="20"/>
	<rect id="XMLID_1226_" x="256.681" y="275.554" style="fill:#73A7E6;" width="44" height="20"/>
</g>
<g>
</g>
<g>
</g>
<g>
</g>
<g>
</g>
<g>
</g>
<g>
</g>
<g>
</g>
<g>
</g>
<g>
</g>
<g>
</g>
<g>
</g>
<g>
</g>
<g>
</g>
<g>
</g>
<g>
</g>
</svg>
