<?xml version="1.0" encoding="UTF-8" standalone="no"?>
<svg
   xmlns:dc="http://purl.org/dc/elements/1.1/"
   xmlns:cc="http://creativecommons.org/ns#"
   xmlns:rdf="http://www.w3.org/1999/02/22-rdf-syntax-ns#"
   xmlns:svg="http://www.w3.org/2000/svg"
   xmlns="http://www.w3.org/2000/svg"
   xmlns:xlink="http://www.w3.org/1999/xlink"
   version="1.1"
   id="svg8845"
   viewBox="0 0 566.92913 566.92913"
   height="160mm"
   width="160mm">
  <defs
     id="defs8847">
    <radialGradient
       gradientTransform="matrix(11.602589,0,0,11.602589,2.3879766,471.87475)"
       gradientUnits="userSpaceOnUse"
       r="11.56"
       cy="17.620001"
       cx="24.049999"
       id="radial-gradient">
      <stop
         id="stop6647"
         stop-opacity="0"
         offset="0.47" />
      <stop
         id="stop6649"
         stop-opacity="0.5"
         stop-color="#603813"
         offset="1" />
    </radialGradient>
    <radialGradient
       gradientUnits="userSpaceOnUse"
       r="8.0500002"
       cy="18.780001"
       cx="23.309999"
       id="radial-gradient-2"
       gradientTransform="matrix(11.602589,0,0,11.602589,9.3495296,530.11974)">
      <stop
         id="stop6652"
         stop-opacity="0"
         offset="0" />
      <stop
         id="stop6654"
         stop-opacity="0.2"
         stop-color="#fff"
         offset="0.91" />
    </radialGradient>
    <linearGradient
       gradientTransform="matrix(11.602589,0,0,11.602589,2.3879766,471.87475)"
       gradientUnits="userSpaceOnUse"
       y2="8.3100004"
       x2="24.1"
       y1="29.719999"
       x1="24.1"
       id="linear-gradient">
      <stop
         id="stop6657"
         stop-color="#fff"
         offset="0.43" />
      <stop
         id="stop6659"
         stop-color="#e6e6e6"
         offset="0.8" />
      <stop
         id="stop6661"
         stop-color="#b3b3b3"
         offset="1" />
    </linearGradient>
    <linearGradient
       y2="10.2"
       x2="-7.5100002"
       y1="42.330002"
       x1="-7.5100002"
       gradientTransform="matrix(-11.602589,0,0,11.602589,316.81809,471.87475)"
       gradientUnits="userSpaceOnUse"
       id="linearGradient7470"
       xlink:href="#linear-gradient-2" />
    <linearGradient
       gradientUnits="userSpaceOnUse"
       gradientTransform="matrix(-1,0,0,1,27.1,0)"
       y2="10.2"
       x2="-7.5100002"
       y1="42.330002"
       x1="-7.5100002"
       id="linear-gradient-2">
      <stop
         id="stop6664"
         stop-opacity="0.1"
         stop-color="aqua"
         offset="0" />
      <stop
         id="stop6666"
         stop-opacity="0"
         stop-color="#989697"
         offset="0.5" />
      <stop
         id="stop6668"
         stop-opacity="0.2"
         stop-color="aqua"
         offset="1" />
    </linearGradient>
    <linearGradient
       gradientTransform="matrix(11.602589,0,0,11.602589,2.3879766,471.87475)"
       xlink:href="#linear-gradient-2"
       y2="10.17"
       x2="13.45"
       y1="42.220001"
       x1="13.45"
       id="linear-gradient-3" />
    <linearGradient
       gradientTransform="matrix(11.602589,0,0,11.602589,2.3879766,471.87475)"
       gradientUnits="userSpaceOnUse"
       y2="34.290001"
       x2="30.4"
       y1="34.290001"
       x1="17.26"
       id="linear-gradient-4">
      <stop
         id="stop6672"
         stop-opacity="0.2"
         stop-color="aqua"
         offset="0" />
      <stop
         id="stop6674"
         stop-opacity="0"
         stop-color="#fff"
         offset="0.4" />
      <stop
         id="stop6676"
         stop-opacity="0"
         stop-color="#fff"
         offset="0.6" />
      <stop
         id="stop6678"
         stop-opacity="0.2"
         stop-color="aqua"
         offset="1" />
    </linearGradient>
    <linearGradient
       gradientUnits="userSpaceOnUse"
       gradientTransform="matrix(-11.602589,0,0,-11.602589,941.96563,981.92456)"
       y2="21.98"
       x2="35.599998"
       y1="21.98"
       x1="33.639999"
       id="linear-gradient-5">
      <stop
         id="stop6681"
         stop-opacity="0.5"
         stop-color="#fff"
         offset="0" />
      <stop
         id="stop6683"
         stop-opacity="0"
         stop-color="#fff"
         offset="0.83" />
    </linearGradient>
  </defs>
  <metadata
     id="metadata8850">
    <rdf:RDF>
      <cc:Work
         rdf:about="">
        <dc:format>image/svg+xml</dc:format>
        <dc:type
           rdf:resource="http://purl.org/dc/dcmitype/StillImage" />
        <dc:title></dc:title>
      </cc:Work>
    </rdf:RDF>
  </metadata>
  <g
     transform="translate(0,-485.43307)"
     id="layer1">
    <path
       class="cls-1"
       d="m 408.47854,663.54951 a 127.62848,127.62848 0 0 0 -183.43693,-114.40152 128.55669,128.55669 0 0 1 14.61926,-0.9282 126.93232,126.93232 0 0 1 58.82513,14.50323 127.62848,127.62848 0 1 0 109.99254,126.35219 c 0,-4.29296 0,-8.58592 -0.69615,-12.87887 -0.69616,-4.29297 0.69615,-8.35387 0.69615,-12.64683 z"
       id="path6690"
       style="fill:#231401" />
    <path
       class="cls-2"
       d="m 408.47854,663.54951 a 127.62848,127.62848 0 0 0 -183.43693,-114.40152 128.55669,128.55669 0 0 1 14.61926,-0.9282 126.93232,126.93232 0 0 1 58.82513,14.50323 127.62848,127.62848 0 1 0 109.99254,126.35219 c 0,-4.29296 0,-8.58592 -0.69615,-12.87887 -0.69616,-4.29297 0.69615,-8.35387 0.69615,-12.64683 z"
       id="path6692"
       style="fill:url(#radial-gradient)" />
    <path
       class="cls-3"
       d="m 405.22982,683.38994 c 0,2.55256 0,5.10514 0,7.65771 0,-1.62437 0,-3.1327 0,-4.75706 0,-1.62436 0,-5.10514 0,-7.65772 0.23205,2.08848 0.23205,3.24873 0,4.75707 z"
       id="path6694"
       style="fill:#87670e" />
    <circle
       class="cls-4"
       cx="281.4303"
       cy="746.62402"
       r="93.400841"
       id="circle6696"
       style="fill:#e0bd6e;stroke:#000000;stroke-width:2.90064716px;stroke-miterlimit:10" />
    <circle
       class="cls-5"
       cx="279.80588"
       cy="748.01636"
       r="93.400841"
       id="circle6698"
       style="fill:url(#radial-gradient-2)" />
    <path
       class="cls-6"
       d="M 512.90185,596.7186 C 424.95421,515.50048 338.863,609.59747 285.14302,705.20281 l 0,0 -1.62436,2.90064 0,0 0,0 -1.16026,2.08847 -3.01667,-5.33719 0,0 C 225.73777,609.24939 139.53053,514.57228 51.466925,596.2545 l 136.562425,185.29335 92.82072,34.80776 0,0 1.16025,0 1.27629,0 0,0 1.16025,0 0,0 91.66046,-34.80776 z"
       id="path6701"
       style="fill:#ffffff;stroke:#000000;stroke-width:5.80129433px;stroke-miterlimit:10" />
    <path
       class="cls-7"
       d="M 510.69735,598.69104 C 423.5619,518.2851 340.02327,613.19427 286.99944,707.87141 l -4.98912,8.70193 -4.87309,-8.70193 0,0 C 224.11341,613.07825 140.57476,518.2851 53.439367,598.69104 l 135.518183,183.08885 91.89252,34.80778 0,0 1.16025,0 1.16027,0 0,0 1.16025,0 0,0 90.73225,-33.99559 z"
       id="path6703"
       style="opacity:0.5;fill:url(#linear-gradient)" />
    <path
       d="m 227.24611,663.66553 c 0,0 -5.56925,-4.87308 -13.34298,-12.64681 -7.77373,-7.77374 -18.10004,-18.10004 -28.54237,-28.31033"
       id="path6705" />
    <path
       d="m 219.00827,682.34571 -4.06091,-4.29296 c -2.55256,-2.78462 -6.38142,-6.49745 -10.90643,-11.60259 -4.52502,-5.10514 -10.21028,-8.93399 -16.01158,-14.38721 -5.80129,-5.45322 -12.29874,-11.6026 -19.02824,-16.47568 -13.11093,-11.02246 -26.56993,-21.58082 -36.89624,-29.1225 -5.22116,-3.5968 -9.63015,-6.84552 -12.76286,-8.81796 l -4.98904,-3.24873 a 129.25284,129.25284 0 0 1 19.4923,9.28208 269.18007,269.18007 0 0 1 38.86867,27.3821 262.56659,262.56659 0 0 1 33.64751,33.64751 146.30866,146.30866 0 0 1 12.64682,17.63594 z"
       id="path6707" />
    <path
       d="M 281.43019,779.34335"
       id="path6709" />
    <path
       d="M 276.093,777.60297"
       id="path6711" />
    <path
       d="m 291.29239,777.25489 a 58.012945,58.012945 0 0 1 1.50834,-7.54168 109.06434,109.06434 0 0 1 5.56924,-15.54748 107.78805,107.78805 0 0 1 7.88976,-14.50324 57.316789,57.316789 0 0 1 4.52501,-6.14937"
       id="path6713" />
    <path
       d="m 338.05083,663.66553 a 315.59043,315.59043 0 0 1 37.82444,-45.01804 162.43625,162.43625 0 0 1 16.70773,-14.03913 118.81051,118.81051 0 0 1 16.24362,-9.8622 82.494403,82.494403 0 0 1 17.28786,-6.84553 l -4.40899,2.43655 c -2.78462,1.50833 -6.7295,3.94488 -11.60258,6.84553 a 228.33895,228.33895 0 0 0 -30.16674,25.52568 c -10.44233,9.97823 -20.65261,20.53659 -28.54236,28.1943 -7.88977,7.65771 -13.34298,12.76284 -13.34298,12.76284 z"
       id="path6715" />
    <path
       d="m 345.82456,679.32904 a 146.30866,146.30866 0 0 1 12.64683,-17.51992 262.56659,262.56659 0 0 1 33.6475,-33.64751 269.18007,269.18007 0 0 1 38.86868,-27.38211 129.25284,129.25284 0 0 1 19.49235,-9.28206 l -4.98911,3.24872 c -3.1327,1.97244 -7.54169,5.22116 -12.76286,8.81797 -10.44232,7.54168 -23.90133,18.10003 -36.89623,29.12249 -6.61348,5.45322 -12.9949,11.60259 -19.02824,16.47568 -6.03335,4.87309 -11.60259,10.32631 -16.01158,14.96734 -4.40898,4.64104 -8.35386,8.23784 -10.90643,11.60259 z"
       id="path6717" />
    <path
       class="cls-8"
       d="m 522.9961,577.22625 4.64103,3.82886 -72.05208,91.31237 c 0,0 -117.8823,156.17085 -174.03883,104.4233 l 0,-17.86799 c 86.32327,-4.87308 92.82071,-42.34945 55.80845,-52.09562 A 649.74498,649.74498 0 0 1 522.9961,577.22625 Z"
       id="path6720"
       style="fill:#070426" />
    <path
       class="cls-8"
       d="m 40.560494,576.9942 -5.569241,4.06091 71.820017,91.31237 c 0,0 117.07008,149.67341 174.0388,104.4233 l 0,-17.86799 C 194.5268,754.04971 188.02935,716.57334 225.04161,706.82717 A 646.96036,646.96036 0 0 0 40.560494,576.9942 Z"
       id="path6722"
       style="fill:#070426" />
    <path
       class="cls-9"
       d="m 525.08457,585.58012 0,255.83707 c -58.59308,22.50903 -158.83945,82.95852 -190.39849,128.2086 L 281.43019,858.47301 358.35536,742.44712 c 0,0 20.76864,-22.27697 -10.21028,-36.89624 A 585.00253,585.00253 0 0 1 525.08457,585.58012 Z"
       id="path6724"
       style="fill:#171456;stroke:#070426;stroke-width:5.80129433px;stroke-miterlimit:10" />
    <path
       class="cls-10"
       d="m 522.18392,590.22116 0,248.2954 C 464.7511,860.32942 367.9855,919.15454 337.4707,962.89627 L 285.72315,854.76018 360.3278,742.44712 c 0,0 20.18851,-21.58082 -9.97823,-35.852 A 567.59865,567.59865 0 0 1 522.18392,590.22116 Z"
       id="path6726"
       style="fill:url(#linearGradient7470)" />
    <path
       class="cls-9"
       d="m 37.775877,585.58012 0,255.83707 C 96.949079,863.92622 196.61527,924.49174 228.17431,969.04566 L 281.43019,857.89287 204.50504,741.86698 c 0,0 -20.76863,-22.27697 10.21027,-36.89623 A 585.00253,585.00253 0 0 0 37.775877,585.58012 Z"
       id="path6728"
       style="fill:#171456;stroke:#070426;stroke-width:5.80129433px;stroke-miterlimit:10" />
    <path
       class="cls-11"
       d="m 40.560494,589.87307 0,247.71528 C 97.877289,859.40122 194.41077,917.99428 224.92559,961.62002 L 276.44108,853.948 201.95246,741.98302 c 0,0 -20.07248,-21.58082 9.8622,-35.73598 A 566.20634,566.20634 0 0 0 40.560494,589.87307 Z"
       id="path6730"
       style="fill:url(#linear-gradient-3)" />
    <path
       class="cls-9"
       d="m 281.43019,764.49203 c -62.77,0 -82.0303,-30.0507 -82.0303,-30.0507 l 27.73018,240.75371 c 0,0 8.46989,30.39876 54.30012,30.39876 45.83024,0 54.30012,-30.2827 54.30012,-30.2827 l 22.62505,-232.05181 c 0,0 -14.15516,21.23274 -76.92517,21.23274 z"
       id="path6732"
       style="fill:#171456;stroke:#070426;stroke-width:5.80129433px;stroke-miterlimit:10" />
    <path
       class="cls-12"
       d="m 280.85007,768.66896 c -60.10143,0 -78.78158,-28.89044 -78.78158,-28.89044 l 27.15006,231.00754 c 0,0 8.23783,29.00651 52.09562,29.00651 43.85778,0 52.21164,-29.00651 52.21164,-29.00651 l 21.58082,-223.00175 c 0,0 -13.57502,20.88465 -74.25656,20.88465 z"
       id="path6734"
       style="fill:url(#linear-gradient-4)" />
    <path
       d="M 350.4656,805.21712"
       id="path6736" />
    <path
       d="M 338.863,947.00079"
       id="path6738" />
    <path
       class="cls-13"
       d="m 528.91342,664.24567 c 12.5308,0 23.20518,28.07826 23.20518,62.65398 0,34.57571 -10.21028,62.65397 -23.20518,62.65397"
       id="path6741"
       style="fill:url(#linear-gradient-5)" />
    <path
       class="cls-14"
       d="m 12.250182,722.02656 c 0,53.71998 20.884644,69.61554 34.807756,69.61554 34.807768,0 55.808462,-42.34945 -6.961546,-45.36612 55.228321,-4.64104 57.432807,-44.90203 0,-46.41037 57.432807,-4.29295 46.410358,-46.41035 6.961546,-46.41035 -16.011569,-0.23205 -34.807756,14.85132 -34.807756,68.5713 z"
       id="path6743"
       style="fill:#e0bd6e;stroke:#070426;stroke-width:5.80129433px;stroke-miterlimit:10" />
    <path
       class="cls-14"
       d="m 555.01923,723.30284 c 0,-53.71999 -20.88465,-69.61553 -34.80775,-69.61553 -34.80778,0 -55.80846,42.34945 6.96155,45.36612 -55.22832,4.64104 -57.43281,44.90202 0,46.41037 -57.43281,4.29296 -46.41036,46.41033 -6.96155,46.41033 15.89555,0.116 34.80775,-14.8513 34.80775,-68.57129 z"
       id="path6745"
       style="fill:#e0bd6e;stroke:#070426;stroke-width:5.80129433px;stroke-miterlimit:10" />
  </g>
</svg>
